<mxfile host="www.draw.io" modified="2019-11-19T06:55:49.263Z" agent="Mozilla/5.0 (Windows NT 6.1; Win64; x64; rv:69.0) Gecko/20100101 Firefox/69.0" etag="hyubvwIlSNqDGU9Xl1Mr" version="12.2.6" type="github" pages="1">
  <diagram name="Page-1" id="13e1069c-82ec-6db2-03f1-153e76fe0fe0">
    <mxGraphModel dx="1422" dy="757" grid="1" gridSize="10" guides="1" tooltips="1" connect="1" arrows="1" fold="1" page="1" pageScale="1" pageWidth="1100" pageHeight="850" background="#ffffff" math="0" shadow="0">
      <root>
        <mxCell id="0"/>
        <mxCell id="1" parent="0"/>
        <mxCell id="7baba1c4bc27f4b0-2" value="&lt;font style=&quot;font-size: 20px&quot;&gt;服务器&lt;/font&gt;" style="shape=umlLifeline;perimeter=lifelinePerimeter;whiteSpace=wrap;html=1;container=1;collapsible=0;recursiveResize=0;outlineConnect=0;rounded=1;shadow=0;comic=0;labelBackgroundColor=none;strokeWidth=1;fontFamily=Verdana;fontSize=12;align=center;" parent="1" vertex="1">
          <mxGeometry x="640" y="190" width="100" height="360" as="geometry"/>
        </mxCell>
        <mxCell id="7baba1c4bc27f4b0-10" value="" style="html=1;points=[];perimeter=orthogonalPerimeter;rounded=0;shadow=0;comic=0;labelBackgroundColor=none;strokeWidth=1;fontFamily=Verdana;fontSize=12;align=center;" parent="7baba1c4bc27f4b0-2" vertex="1">
          <mxGeometry x="45" y="100" width="10" height="170" as="geometry"/>
        </mxCell>
        <mxCell id="7baba1c4bc27f4b0-8" value="&lt;font style=&quot;font-size: 20px&quot;&gt;客户端&lt;/font&gt;" style="shape=umlLifeline;perimeter=lifelinePerimeter;whiteSpace=wrap;html=1;container=1;collapsible=0;recursiveResize=0;outlineConnect=0;rounded=1;shadow=0;comic=0;labelBackgroundColor=none;strokeWidth=1;fontFamily=Verdana;fontSize=12;align=center;" parent="1" vertex="1">
          <mxGeometry x="350" y="190" width="100" height="370" as="geometry"/>
        </mxCell>
        <mxCell id="7baba1c4bc27f4b0-9" value="" style="html=1;points=[];perimeter=orthogonalPerimeter;rounded=0;shadow=0;comic=0;labelBackgroundColor=none;strokeWidth=1;fontFamily=Verdana;fontSize=12;align=center;" parent="7baba1c4bc27f4b0-8" vertex="1">
          <mxGeometry x="45" y="100" width="10" height="260" as="geometry"/>
        </mxCell>
        <mxCell id="7baba1c4bc27f4b0-11" value="&lt;font style=&quot;font-size: 15px&quot;&gt;开枪请求&lt;/font&gt;" style="html=1;verticalAlign=bottom;endArrow=block;entryX=0;entryY=0;labelBackgroundColor=none;fontFamily=Verdana;fontSize=12;edgeStyle=elbowEdgeStyle;elbow=vertical;" parent="1" source="7baba1c4bc27f4b0-9" target="7baba1c4bc27f4b0-10" edge="1">
          <mxGeometry relative="1" as="geometry">
            <mxPoint x="470" y="300" as="sourcePoint"/>
          </mxGeometry>
        </mxCell>
        <mxCell id="7baba1c4bc27f4b0-40" value="&lt;div&gt;子弹飞行任务&lt;/div&gt;&lt;div&gt;仅做展示用&lt;/div&gt;" style="shape=note;whiteSpace=wrap;html=1;size=14;verticalAlign=top;align=left;spacingTop=-6;rounded=0;shadow=0;comic=0;labelBackgroundColor=none;strokeWidth=1;fontFamily=Verdana;fontSize=12" parent="1" vertex="1">
          <mxGeometry x="350" y="140" width="100" height="35" as="geometry"/>
        </mxCell>
        <mxCell id="7baba1c4bc27f4b0-41" value="&lt;div&gt;子弹飞行任务&lt;/div&gt;&lt;div&gt;做实时碰撞监测&lt;br&gt;&lt;/div&gt;" style="shape=note;whiteSpace=wrap;html=1;size=14;verticalAlign=top;align=left;spacingTop=-6;rounded=0;shadow=0;comic=0;labelBackgroundColor=none;strokeWidth=1;fontFamily=Verdana;fontSize=12" parent="1" vertex="1">
          <mxGeometry x="640" y="140" width="100" height="35" as="geometry"/>
        </mxCell>
        <mxCell id="gaQEnlO5i_sfMu5DkWdG-2" value="返回弹着点" style="html=1;verticalAlign=bottom;endArrow=open;dashed=1;endSize=8;fontSize=15;entryX=1;entryY=0.342;entryDx=0;entryDy=0;entryPerimeter=0;" edge="1" parent="1" target="7baba1c4bc27f4b0-9">
          <mxGeometry relative="1" as="geometry">
            <mxPoint x="682" y="350" as="sourcePoint"/>
            <mxPoint x="405" y="339" as="targetPoint"/>
          </mxGeometry>
        </mxCell>
        <mxCell id="gaQEnlO5i_sfMu5DkWdG-3" value="&lt;font style=&quot;font-size: 15px&quot;&gt;预计算弹着点&lt;/font&gt;" style="html=1;verticalAlign=bottom;endArrow=block;labelBackgroundColor=none;fontFamily=Verdana;fontSize=12;elbow=vertical;edgeStyle=orthogonalEdgeStyle;curved=1;entryX=1;entryY=0.286;entryPerimeter=0;exitX=1.038;exitY=0.345;exitPerimeter=0;" edge="1" parent="1">
          <mxGeometry x="-0.2308" y="25" relative="1" as="geometry">
            <mxPoint x="700" y="300" as="sourcePoint"/>
            <mxPoint x="705" y="338" as="targetPoint"/>
            <Array as="points">
              <mxPoint x="755" y="300"/>
              <mxPoint x="755" y="338"/>
            </Array>
            <mxPoint as="offset"/>
          </mxGeometry>
        </mxCell>
        <mxCell id="gaQEnlO5i_sfMu5DkWdG-4" value="&lt;font style=&quot;font-size: 15px&quot;&gt;子弹飞行任务&lt;/font&gt;" style="html=1;verticalAlign=bottom;endArrow=block;labelBackgroundColor=none;fontFamily=Verdana;fontSize=12;elbow=vertical;edgeStyle=orthogonalEdgeStyle;curved=1;entryX=1;entryY=0.286;entryPerimeter=0;exitX=1.038;exitY=0.345;exitPerimeter=0;" edge="1" parent="1">
          <mxGeometry x="-0.2886" y="12" relative="1" as="geometry">
            <mxPoint x="382.5" y="380" as="sourcePoint"/>
            <mxPoint x="387.5" y="418" as="targetPoint"/>
            <Array as="points">
              <mxPoint x="330" y="380"/>
              <mxPoint x="330" y="418"/>
            </Array>
            <mxPoint x="-24" as="offset"/>
          </mxGeometry>
        </mxCell>
        <mxCell id="gaQEnlO5i_sfMu5DkWdG-5" value="&lt;font style=&quot;font-size: 15px&quot;&gt;子弹飞行任务&lt;/font&gt;" style="html=1;verticalAlign=bottom;endArrow=block;labelBackgroundColor=none;fontFamily=Verdana;fontSize=12;elbow=vertical;edgeStyle=orthogonalEdgeStyle;curved=1;entryX=1;entryY=0.286;entryPerimeter=0;exitX=1.038;exitY=0.345;exitPerimeter=0;" edge="1" parent="1">
          <mxGeometry x="-0.2308" y="25" relative="1" as="geometry">
            <mxPoint x="700" y="380" as="sourcePoint"/>
            <mxPoint x="705" y="418" as="targetPoint"/>
            <Array as="points">
              <mxPoint x="755" y="380"/>
              <mxPoint x="755" y="418"/>
            </Array>
            <mxPoint as="offset"/>
          </mxGeometry>
        </mxCell>
        <mxCell id="gaQEnlO5i_sfMu5DkWdG-6" value="同步碰撞结果" style="html=1;verticalAlign=bottom;endArrow=open;dashed=1;endSize=8;fontSize=15;entryX=0.9;entryY=0.195;entryDx=0;entryDy=0;entryPerimeter=0;" edge="1" parent="1">
          <mxGeometry relative="1" as="geometry">
            <mxPoint x="685" y="440" as="sourcePoint"/>
            <mxPoint x="407" y="465.79999999999995" as="targetPoint"/>
          </mxGeometry>
        </mxCell>
        <mxCell id="gaQEnlO5i_sfMu5DkWdG-7" value="&lt;font style=&quot;font-size: 15px&quot;&gt;显示击中特效&lt;/font&gt;" style="html=1;verticalAlign=bottom;endArrow=block;labelBackgroundColor=none;fontFamily=Verdana;fontSize=12;elbow=vertical;edgeStyle=orthogonalEdgeStyle;curved=1;entryX=1;entryY=0.286;entryPerimeter=0;exitX=1.038;exitY=0.345;exitPerimeter=0;" edge="1" parent="1">
          <mxGeometry x="-0.2886" y="12" relative="1" as="geometry">
            <mxPoint x="383" y="470" as="sourcePoint"/>
            <mxPoint x="388" y="508" as="targetPoint"/>
            <Array as="points">
              <mxPoint x="330" y="470"/>
              <mxPoint x="330" y="508"/>
            </Array>
            <mxPoint x="-24" as="offset"/>
          </mxGeometry>
        </mxCell>
        <mxCell id="gaQEnlO5i_sfMu5DkWdG-8" value="&lt;font style=&quot;font-size: 16px&quot;&gt;&lt;b&gt;有子弹飞行时间的设计时序图&lt;/b&gt;&lt;/font&gt;" style="text;html=1;strokeColor=none;fillColor=none;align=center;verticalAlign=middle;whiteSpace=wrap;rounded=0;fontSize=15;" vertex="1" parent="1">
          <mxGeometry x="380" y="580" width="340" height="20" as="geometry"/>
        </mxCell>
      </root>
    </mxGraphModel>
  </diagram>
</mxfile>
